<svg width="52" height="40" viewBox="0 0 52 40" fill="none" xmlns="http://www.w3.org/2000/svg">
<path d="M43.0842 1.81082L42.4635 5.42009L42.1942 9.06657L42.0222 12.7205L41.2444 16.3223L40.878 19.9539L40.9004 23.6302L40.4891 27.3585L36.8769 27.7604L33.347 28.0729L29.8021 28.1473L26.2647 28.2738L22.7198 28.2962L19.1899 28.5864L15.6525 28.5343L12.1151 28.8245L8.57771 28.9064L5.03283 28.7204L1.5777 28.6162L1.89928 25.0813L2.2433 21.4572L2.84159 17.8702L3.95591 14.3949L4.35975 10.7707L5.37685 7.2731L5.90036 3.79778L9.46019 3.1429L13.192 2.94941L16.9089 2.65918L20.6258 2.34663L24.3277 1.90012L28.0745 2.01919L31.7914 1.69175L35.5233 1.74384L39.2476 1.62478L42.972 1.25269L43.0842 1.81082Z" fill="#C8E3FA"/>
<path d="M8.57752 30.0003C8.56256 30.0003 8.5476 29.8142 8.53265 29.8142C7.94183 29.7845 7.93435 29.9779 7.34354 29.9482C6.75273 29.9184 6.75273 29.9184 6.16191 29.8886C5.5711 29.8589 5.5711 29.9333 4.98029 29.911C4.40443 29.8886 4.41191 29.8142 3.83605 29.7993C3.2602 29.7845 3.26768 29.7175 2.69182 29.7026C2.11597 29.6877 2.12344 29.4645 1.55507 29.4421C1.27836 29.4347 1.00165 29.4942 0.814681 29.2933C0.627715 29.0849 0.582843 28.8096 0.605279 28.5342C0.650151 28.0208 0.567886 28.0133 0.620236 27.5073C0.665108 26.9863 0.852074 27.0087 0.896946 26.4952C0.941818 25.9817 0.867032 25.9743 0.911904 25.4682C0.956776 24.9547 1.00913 24.9622 1.06148 24.4487C1.10635 23.9352 1.12878 23.9352 1.17366 23.4292C1.21853 22.9157 1.27836 22.9231 1.32323 22.4096C1.3681 21.8962 1.11383 21.8738 1.18113 21.3604C1.2634 20.7501 1.33819 20.7576 1.44289 20.1548C1.54011 19.5446 1.71212 19.5743 1.80934 18.9641C1.90656 18.3539 1.89909 18.3539 2.00379 17.7436C2.01126 17.699 1.89909 17.632 1.91404 17.5874C2.09353 17.0218 2.04866 17.0069 2.22815 16.4413C2.40763 15.8758 2.36276 15.8609 2.54225 15.2953C2.72174 14.7297 2.90122 14.7744 3.02088 14.1939C3.14802 13.6134 3.07323 13.5986 3.14054 13.0107C3.20785 12.4228 3.0134 12.4004 3.08071 11.8125C3.14802 11.2246 3.35742 11.247 3.41725 10.6591C3.43969 10.6144 3.44717 10.5698 3.46212 10.5102C3.62665 9.9372 3.67152 9.95209 3.83605 9.37907C4.00059 8.80605 3.70892 8.72419 3.87345 8.15117C4.03798 7.57816 4.37452 7.66746 4.50165 7.07956C4.62879 6.52142 4.51661 6.4991 4.59888 5.92608C4.68114 5.3605 4.81576 5.37539 4.89802 4.80981C4.98029 4.24423 4.84567 4.22191 4.92794 3.65633C4.98777 3.23215 5.30935 3.0089 5.73563 2.93448C6.32644 2.82285 6.33392 2.86006 6.93222 2.75588C7.52303 2.64425 7.51555 2.5996 8.11384 2.48797C8.70465 2.37634 8.66726 2.16797 9.26555 2.05635C9.31042 2.04891 9.36277 2.02658 9.40765 2.02658C10.0284 1.99681 10.0433 2.22751 10.6641 2.19774C11.2848 2.16797 11.2773 2.07123 11.9055 2.03402C12.5262 2.00426 12.5262 2.03402 13.147 1.98937C13.678 1.95216 13.663 1.78844 14.1865 1.74379C14.7175 1.69914 14.725 1.82565 15.2559 1.78844C15.772 1.73635 15.7795 1.74379 16.303 1.70658C16.8339 1.66193 16.8265 1.64705 17.3575 1.6024C17.8884 1.55775 17.8959 1.69914 18.4269 1.65449C18.9579 1.60984 18.9579 1.62472 19.4889 1.58007C20.0198 1.53542 19.9899 1.23031 20.5209 1.17822C21.1342 1.11868 21.1342 1.15589 21.7474 1.08147C22.3607 1.00706 22.3906 1.27496 23.0038 1.20054C23.6171 1.12612 23.5797 0.813569 24.1929 0.739151C24.2453 0.731709 24.3201 0.739151 24.3724 0.739151C24.9857 0.761476 24.9782 0.895428 25.5914 0.917754C26.2047 0.940079 26.2122 0.791243 26.8254 0.806127C27.4387 0.82101 27.4312 1.06659 28.0444 1.04426C28.6577 1.02938 28.6353 0.813569 29.2485 0.754034C29.8618 0.701942 29.8692 0.798685 30.475 0.746593C31.0808 0.6945 31.0808 0.627524 31.6865 0.575431C31.7239 0.575431 31.7688 0.865661 31.7987 0.865661C32.4194 0.873103 32.4194 0.858219 33.0402 0.865661C33.6609 0.873103 33.6609 0.858219 34.2816 0.865661C34.9024 0.873103 34.9024 0.761476 35.5306 0.754034C36.1438 0.746593 36.1363 0.620082 36.7496 0.597757C37.3628 0.575431 37.3703 0.701942 37.9836 0.687058C38.5968 0.672175 38.5968 0.649849 39.2101 0.61264C39.8233 0.575431 39.8233 0.620082 40.4366 0.553106C41.0498 0.493572 41.0274 0.270318 41.6331 0.210784C42.2464 0.151249 42.2688 0.359619 42.8746 0.292643C43.3831 0.233109 43.8842 0.545664 43.9889 1.05171C44.0413 1.32705 43.8468 1.3717 43.8992 1.64705C43.9216 1.76612 44.1983 1.87774 44.1759 1.99681C44.0712 2.59216 44.1235 2.5996 44.0263 3.19494C43.9216 3.79028 43.6449 3.73819 43.5402 4.33354C43.4355 4.92888 43.3906 4.92888 43.3158 5.52422C43.2485 6.11957 43.5252 6.14933 43.4804 6.74468C43.4355 7.34746 43.2635 7.33258 43.2186 7.93536C43.1737 8.53815 43.3532 8.54559 43.3158 9.14837C43.2784 9.75116 43.1588 9.74372 43.1289 10.3465C43.099 10.9493 43.1139 10.9493 43.0915 11.5595C43.0616 12.1623 43.2037 12.1697 43.1737 12.78C43.1737 12.8321 42.9269 12.8618 42.912 12.9139C42.7849 13.5018 42.8222 13.5093 42.6951 14.1046C42.568 14.6925 42.4857 14.6776 42.3586 15.2655C42.2314 15.8534 42.4932 15.9055 42.4034 16.5009C42.3137 17.0813 42.3511 17.0813 42.2913 17.6692C42.2314 18.2571 41.9996 18.2348 41.9398 18.8227C41.8799 19.4106 41.9846 19.418 41.9547 20.0059C41.9248 20.6087 42.0594 20.6013 42.0669 21.2115C42.0744 21.8143 41.7378 21.8143 41.7453 22.4245C41.7528 23.0273 42.0669 23.0273 42.0669 23.6301C42.0669 23.6673 41.9547 23.712 41.9547 23.7566C41.8874 24.3743 41.693 24.3519 41.6257 24.9771C41.5584 25.5947 41.8126 25.6245 41.7378 26.2496C41.6631 26.8747 41.4761 26.8524 41.4088 27.4701C41.3564 27.9389 41.0573 28.244 40.5861 28.2961C39.9878 28.3631 40.0103 28.6087 39.412 28.6756C38.8062 28.7426 38.8062 28.7277 38.2079 28.7947C37.6021 28.8617 37.5872 28.6682 36.9814 28.7277C36.3906 28.7873 36.413 28.9807 35.8222 29.0328C35.2314 29.0849 35.2165 28.9584 34.6256 29.0105C34.0348 29.0626 34.0423 29.2114 33.4515 29.2412C32.8532 29.271 32.8457 29.1742 32.24 29.1817C31.6342 29.1966 31.6417 29.2933 31.0359 29.3082C30.4301 29.3231 30.4376 29.3305 29.8318 29.3454C29.2485 29.3603 29.241 29.271 28.6577 29.2933C28.0744 29.3156 28.0744 29.3975 27.4835 29.4198C26.9002 29.4421 26.8852 29.1891 26.3019 29.1966C25.7111 29.2114 25.7111 29.1445 25.1278 29.1519C24.537 29.1519 24.537 29.1817 23.9461 29.1817C23.3553 29.1817 23.3478 29.1593 22.7645 29.1817C22.1812 29.204 22.1961 29.4793 21.6203 29.524C21.0369 29.5686 21.0369 29.5835 20.4536 29.6356C19.8703 29.6803 19.8628 29.6059 19.2795 29.6579C19.2495 29.6579 19.2047 29.7398 19.1748 29.7324C18.5914 29.7175 18.5914 29.7026 18.0156 29.6952C17.4322 29.6877 17.4397 29.4049 16.8564 29.3975C16.273 29.39 16.2656 29.4421 15.6897 29.457C15.1064 29.4793 15.1139 29.5835 14.5305 29.6356C13.9472 29.6877 13.9397 29.6059 13.3639 29.6505C12.7805 29.7026 12.788 29.7919 12.2047 29.8217C11.6064 29.8514 11.6064 29.7547 11.0006 29.7621C10.4023 29.777 10.4023 29.8961 9.80402 29.911C9.20572 29.9259 9.20572 29.9333 8.59995 29.9407C8.59247 29.9333 8.585 30.0003 8.57752 30.0003ZM2.73669 27.5817C3.17046 27.991 3.26768 27.7603 3.86597 27.7826C4.46426 27.8049 4.47174 27.604 5.07003 27.6263C5.65337 27.6487 5.66084 27.6561 6.24418 27.6859C6.83499 27.7156 6.83499 27.6338 7.42581 27.6635C8.01662 27.6933 8.00166 27.7901 8.59247 27.7975C9.17581 27.8049 9.17581 27.8496 9.75914 27.8347C10.3425 27.8198 10.35 28.0431 10.9333 28.0282C11.5166 28.0133 11.5166 27.8422 12.1 27.8124C12.6758 27.7826 12.6833 27.8049 13.2592 27.7603C13.835 27.7082 13.835 27.6263 14.4109 27.5817C14.9867 27.5296 15.0092 27.7156 15.585 27.671C15.6149 27.671 15.6374 27.5891 15.6748 27.5891C16.2581 27.5966 16.2581 27.6487 16.8339 27.6561C17.4173 27.6635 17.4173 27.6784 18.0006 27.6933C18.5839 27.7008 18.5914 27.7826 19.1748 27.7677C19.7581 27.7454 19.7431 27.4849 20.3265 27.4403C20.9098 27.3956 20.9098 27.4552 21.4931 27.4031C22.0765 27.3584 22.0914 27.5222 22.6673 27.4775C22.6897 27.4775 22.7047 27.4626 22.7271 27.4626C23.3179 27.4552 23.3179 27.3361 23.9087 27.3361C24.4996 27.3361 24.4996 27.284 25.0904 27.2766C25.6812 27.2766 25.6812 27.2319 26.272 27.2245C26.8553 27.2096 26.8628 27.3212 27.4461 27.3063C28.0295 27.284 28.0295 27.2691 28.6128 27.2468C29.1961 27.2245 29.1887 27.031 29.7795 27.0161C30.3703 27.0012 30.3778 27.2096 30.9686 27.2022C31.5594 27.1873 31.5594 27.1873 32.1577 27.1724C32.7485 27.1575 32.756 27.2245 33.3543 27.1947C33.9301 27.1649 33.9077 26.8375 34.4836 26.7854C35.0594 26.7333 35.0893 27.031 35.6652 26.9789C36.241 26.9268 36.2336 26.8524 36.8094 26.8003C37.2731 26.7556 37.288 26.8747 37.7517 26.8226C38.2154 26.7705 38.2004 26.6291 38.6641 26.577C39.1278 26.525 39.3522 26.8598 39.6812 26.525C40.0178 26.1826 39.8084 25.9817 39.8607 25.5054C39.9131 25.0292 39.8607 25.0217 39.9205 24.5454C39.9729 24.0692 39.7859 24.0543 39.8084 23.5706C39.8383 22.9678 39.7859 22.9752 39.7859 22.3724C39.7784 21.7696 40.0178 21.7696 40.0103 21.1669C40.0028 20.5641 39.9131 20.5641 39.9056 19.9613C39.9056 19.9241 39.928 19.8943 39.9355 19.8571C39.9953 19.2543 39.8383 19.232 39.8981 18.6292C39.9579 18.019 40.0851 18.0339 40.1524 17.4311C40.2122 16.8209 40.2197 16.8283 40.2795 16.2181C40.287 16.1809 40.272 16.1437 40.2795 16.1064C40.4066 15.5185 40.5413 15.5483 40.6684 14.9679C40.7955 14.38 40.8105 14.3874 40.9376 13.7995C41.0648 13.2116 40.803 13.1669 40.8778 12.5716C40.9526 11.9837 40.9526 11.9911 40.9825 11.3958C41.0124 10.8005 41.2816 10.8153 41.3041 10.22C41.334 9.62465 41.0049 9.60977 41.0423 9.01442C41.0797 8.40419 41.0947 8.40419 41.1395 7.78653C41.1844 7.1763 41.319 7.18374 41.3639 6.57351C41.4088 5.96329 41.2592 5.9484 41.3041 5.33818C41.3041 5.30841 41.5135 5.29353 41.5135 5.25632C41.5957 4.7726 41.4163 4.74283 41.4985 4.26656C41.5808 3.78284 41.678 3.80517 41.7678 3.32145C41.85 2.83774 42.3137 2.75588 41.9173 2.46565C41.3863 2.07867 41.319 2.25728 40.6609 2.32425C40.0028 2.39123 40.0103 2.421 39.3522 2.47309C38.881 2.5103 38.8885 2.5103 38.4098 2.52518C37.9387 2.54006 37.9387 2.67402 37.4675 2.6889C36.9889 2.70378 36.9964 2.82285 36.5177 2.83774C36.0391 2.85262 36.0391 2.74099 35.5605 2.74099C34.9398 2.74843 34.9398 2.77076 34.319 2.75588C33.6983 2.74843 33.6983 2.68146 33.0776 2.67402C32.4568 2.66657 32.4643 2.86006 31.8436 2.88239C31.2303 2.90471 31.2229 2.72611 30.6171 2.78564C30.0038 2.83774 30.0113 2.90471 29.3981 2.9568C28.7848 3.0089 28.7699 2.80797 28.1566 2.86006C28.1192 2.8675 28.0893 3.14285 28.0444 3.14285C27.4312 3.12052 27.4312 3.18006 26.8254 3.15773C26.2122 3.13541 26.2271 2.86006 25.6139 2.83774C25.0006 2.81541 24.9931 2.75588 24.3799 2.7782C23.7592 2.79308 23.7816 3.07587 23.1758 3.15029C22.5701 3.22471 22.5476 3.05355 21.9419 3.12797C21.3361 3.20238 21.3585 3.39587 20.7528 3.4554C20.2218 3.5075 20.2068 3.37354 19.6758 3.41075C19.1448 3.4554 19.1448 3.47029 18.6139 3.51494C18.0829 3.55959 18.0904 3.69354 17.5594 3.73819C17.0284 3.78284 17.006 3.53726 16.475 3.58191C15.944 3.62657 15.944 3.66377 15.413 3.70843C14.8745 3.75308 14.8745 3.67122 14.3361 3.71587C13.7976 3.76052 13.82 4.06563 13.2891 4.10284C12.6758 4.14005 12.6758 4.14005 12.0626 4.17726C11.4493 4.20703 11.4344 3.97633 10.8211 4.01354C10.2079 4.05075 10.2153 4.14749 9.60209 4.21447C9.13094 4.26656 9.16085 4.40051 8.69718 4.48237C8.2335 4.56423 8.17367 4.24423 7.70252 4.32609C7.22388 4.4154 7.23136 4.42284 6.9023 4.76516C6.57324 5.10004 6.76768 5.12236 6.70038 5.58376C6.63307 6.04515 6.43862 6.01538 6.37132 6.47677C6.30401 6.93816 6.55828 6.97537 6.49097 7.43676C6.4835 7.48141 6.28905 7.48885 6.27409 7.5335C6.10956 8.09908 6.10956 8.10652 5.94503 8.6721C5.7805 9.24512 6.01234 9.31209 5.84781 9.87767C5.68328 10.4507 5.62345 10.4209 5.51127 11.0014C5.39161 11.5818 5.24204 11.5521 5.17473 12.14C5.10742 12.7279 5.30935 12.7502 5.24204 13.3381C5.17473 13.926 5.0476 13.9111 4.98029 14.5065C4.97281 14.5734 5.07751 14.6776 5.05507 14.7446C4.87559 15.3102 4.79332 15.2879 4.61383 15.8534C4.43435 16.419 4.52409 16.4562 4.3446 17.0218C4.16512 17.5874 4.1352 17.5725 4.00059 18.1529C3.85849 18.726 3.80614 18.7111 3.70892 19.2915C3.6117 19.8794 3.69396 19.8943 3.59674 20.4748C3.49952 21.0627 3.21533 21.018 3.14054 21.6059C3.07323 22.1045 3.04332 22.1045 2.99097 22.6106C2.9461 23.1092 2.96853 23.1166 2.92366 23.6152C2.87879 24.1138 2.87131 24.1138 2.82644 24.6199C2.78157 25.1185 3.02836 25.1482 2.98349 25.6468C2.93862 26.1529 3.04332 26.1975 2.89375 26.6812C2.75165 27.1724 2.37024 27.2319 2.73669 27.5817Z" fill="#023866"/>
<path d="M46.7635 6.38027L46.1801 9.99698L45.9333 13.6434L45.6716 17.2899L45.4173 20.9364L44.8639 24.5605L44.4899 28.1921L44.0637 31.6823L40.6833 32.0172L37.1833 32.5902L33.6235 32.5009L30.1085 32.9623L26.5636 32.873L23.0262 33.0814L19.4963 33.4312L15.9589 33.5949L12.414 33.5205L8.87661 33.3567L5.31677 33.2898L5.81784 29.6731L6.11699 26.0489L6.8125 22.4843L7.46315 18.9122L8.2858 15.3774L9.06358 11.8351L9.66935 8.31513L13.3414 8.08444L17.0134 7.37747L20.7452 7.20631L24.4472 6.73747L28.194 6.83422L31.9034 6.50678L35.6277 6.26864L39.3521 6.09748L43.0765 5.80725L46.8083 5.9412L46.7635 6.38027Z" fill="#C8E3FA"/>
<path d="M16.004 34.7333C15.4057 34.7407 15.4057 34.4207 14.7999 34.4058C14.1942 34.3909 14.1942 34.3984 13.5959 34.3909C12.9901 34.3761 12.9976 34.3984 12.3918 34.3761C11.801 34.3537 11.786 34.6514 11.1952 34.6216C10.6044 34.5919 10.5969 34.6216 10.0061 34.5919C9.41531 34.5621 9.42279 34.2644 8.83198 34.2421C8.24116 34.2198 8.23369 34.5249 7.65035 34.5175C7.05954 34.5026 7.06702 34.3389 6.4762 34.324C5.88539 34.3091 5.88539 34.2049 5.30206 34.1975C5.01787 34.19 4.77107 34.1305 4.58411 33.9147C4.39714 33.6989 4.44201 33.4533 4.4794 33.1705C4.56167 32.5677 4.44949 32.5528 4.53176 31.95C4.61402 31.3473 4.59158 31.3473 4.67385 30.7445C4.75611 30.1417 4.59906 30.1268 4.66637 29.5166C4.73368 28.9212 4.87577 28.9361 4.92812 28.3482C4.98047 27.7529 4.90569 27.7454 4.95056 27.1501C5.00291 26.5547 4.95056 26.5473 4.99543 25.952C4.99543 25.9148 5.23475 25.9147 5.24223 25.8775C5.35441 25.2822 5.15248 25.245 5.27214 24.6496C5.38432 24.0543 5.33945 24.0469 5.45911 23.4515C5.57129 22.8562 5.77321 22.8934 5.88539 22.298C5.99757 21.7027 5.84052 21.6804 5.94522 21.085C6.0574 20.4897 6.27428 20.5343 6.38646 19.939C6.49864 19.3437 6.34907 19.3213 6.46872 18.726C6.59586 18.1232 6.73048 18.1604 6.87257 17.5576C7.01467 16.9623 6.90997 16.94 7.05206 16.3372C7.19415 15.7418 7.34373 15.7716 7.48582 15.1762C7.62044 14.5883 7.47834 14.5586 7.61296 13.9707C7.7401 13.3828 7.77001 13.3902 7.89715 12.7949C8.02428 12.207 7.86723 12.1772 7.98689 11.5819C8.09907 11.0088 8.31595 11.0461 8.41317 10.4656C8.5104 9.88514 8.43561 9.87025 8.53283 9.29724C8.63005 8.71678 8.42813 8.68701 8.52535 8.10655C8.60762 7.64516 9.15356 7.27307 9.61724 7.2433C10.2155 7.20609 10.2155 7.19121 10.8138 7.154C11.4121 7.11679 11.4196 7.14656 12.0179 7.10935C12.6162 7.07214 12.6237 7.12423 13.2219 7.04982C13.8277 6.9754 13.8053 6.86377 14.411 6.75214C15.0168 6.63308 15.0243 6.67773 15.6226 6.5661C16.2284 6.44703 16.2209 6.40982 16.8192 6.29075C16.864 6.28331 16.9388 6.43215 16.9837 6.43215C17.597 6.40238 17.597 6.40982 18.2102 6.3875C18.8235 6.35773 18.8235 6.26099 19.4367 6.23122C20.05 6.20145 20.0649 6.40982 20.6782 6.35773C21.2914 6.30564 21.2914 6.27587 21.9047 6.20145C22.5179 6.12703 22.5029 6.03029 23.1162 5.95587C23.7294 5.88145 23.722 5.84425 24.3352 5.76983C24.3876 5.76239 24.4324 5.64332 24.4848 5.64332C25.098 5.6582 25.098 5.74006 25.7113 5.75494C26.3245 5.76983 26.332 5.59867 26.9453 5.61355C27.5585 5.62843 27.551 5.66564 28.1643 5.65076C28.7775 5.62843 28.785 5.87401 29.3983 5.81448C30.0115 5.76239 30.004 5.71774 30.6173 5.66564C31.2305 5.61355 31.2305 5.66564 31.8438 5.62099C32.4645 5.57634 32.4645 5.61355 33.0927 5.57634C33.7209 5.53913 33.7134 5.42006 34.3342 5.38286C34.9624 5.34565 34.9624 5.36053 35.5831 5.32332C36.2038 5.28611 36.2113 5.35309 36.832 5.32332C37.4528 5.29355 37.4528 5.301 38.081 5.27123C38.7092 5.24146 38.6867 4.981 39.3149 4.93635C39.9282 4.89914 39.9282 4.90658 40.5414 4.86193C41.1547 4.80984 41.1697 4.981 41.7829 4.93635C42.3962 4.88426 42.3812 4.69077 43.0019 4.64612C43.0393 4.64612 43.0917 4.78007 43.1291 4.78007C43.7498 4.8024 43.7573 4.67589 44.378 4.69821C44.9987 4.72054 44.9987 4.80984 45.6194 4.8396C46.2402 4.86193 46.2477 4.75774 46.8684 4.78007C47.1451 4.78751 47.3769 5.09263 47.5564 5.301C47.7359 5.50937 48.0051 5.76983 47.9752 6.04517C47.9528 6.26099 47.893 6.26099 47.878 6.4768C47.878 6.49912 47.6237 6.49168 47.6237 6.51401C47.5265 7.10935 47.5489 7.10935 47.4592 7.70469C47.362 8.30004 47.4143 8.30748 47.3171 8.90282C47.2199 9.49816 47.1825 9.49816 47.1152 10.0935C47.0479 10.6368 47.0853 10.6442 47.0479 11.1875C47.0105 11.7307 47.0254 11.7307 46.988 12.274C46.9506 12.8172 46.988 12.8246 46.9506 13.3679C46.9133 13.9111 46.8908 13.9111 46.8534 14.4544C46.816 14.9976 46.9806 15.0125 46.9432 15.5558C46.9058 16.099 46.7487 16.0916 46.7113 16.6348C46.6739 17.1781 46.7861 17.1855 46.7487 17.7288C46.7113 18.272 46.7263 18.2795 46.6889 18.8227C46.6515 19.366 46.4795 19.3585 46.4421 19.9018C46.4047 20.445 46.6216 20.4599 46.5767 21.0106C46.5767 21.0404 46.6216 21.085 46.6141 21.1074C46.5244 21.7101 46.2626 21.6729 46.1729 22.2757C46.0831 22.8785 46.3224 22.9157 46.2327 23.5185C46.143 24.1213 45.956 24.0915 45.8812 24.7017C45.8064 25.2971 45.7765 25.2971 45.7092 25.8924C45.6494 26.4878 45.8363 26.5101 45.7765 27.1129C45.7167 27.7082 45.44 27.6859 45.3727 28.2812C45.3053 28.8691 45.612 28.8989 45.5447 29.4868C45.4699 30.0747 45.1333 30.0301 45.0586 30.618C44.9838 31.2059 45.1558 31.2207 45.081 31.8086C45.0212 32.2775 44.6547 32.6272 44.191 32.6719C43.6301 32.724 43.6451 32.91 43.0842 32.9621C42.5233 33.0142 42.5158 32.9845 41.9549 33.0365C41.394 33.0886 41.3716 32.9026 40.8107 32.977C40.2348 33.0514 40.2199 32.977 39.6515 33.0663C39.0756 33.1631 39.128 33.4458 38.5521 33.5426C37.9763 33.6393 37.9239 33.3119 37.3481 33.4086C37.2882 33.4161 37.2508 33.6021 37.191 33.6021C36.6152 33.5872 36.6152 33.431 36.0393 33.4161C35.456 33.4012 35.456 33.5872 34.8726 33.5724C34.2893 33.5575 34.2893 33.4235 33.7134 33.4533C33.1376 33.483 33.1451 33.5724 32.5692 33.6468C31.9934 33.7212 31.9784 33.5724 31.4025 33.6468C30.8267 33.7212 30.8566 33.9221 30.2807 33.9965C30.2284 34.004 30.1686 34.1007 30.1162 34.1007C29.5329 34.0858 29.5329 34.071 28.9495 34.0635C28.3662 34.0486 28.3737 33.7807 27.7904 33.7658C27.207 33.751 27.1995 33.7063 26.6162 33.7137C26.0329 33.7212 26.0254 33.7435 25.4495 33.7807C24.8662 33.8179 24.8812 34.0858 24.2978 34.123C23.7145 34.1603 23.707 33.9965 23.1237 34.0486C22.5403 34.0933 22.5403 34.123 21.9645 34.1826C21.3811 34.2421 21.3811 34.2272 20.7978 34.2868C20.2145 34.3463 20.2294 34.4803 19.6461 34.5249C19.0478 34.5696 19.0403 34.3686 18.442 34.3984C17.8438 34.4282 17.8213 34.2942 17.223 34.3761C16.5724 34.443 16.6098 34.7258 16.004 34.7333ZM6.57343 32.2254C6.95484 32.7017 7.06702 32.4859 7.67279 32.5007C8.27856 32.5156 8.27856 32.4933 8.88433 32.5156C9.47514 32.5379 9.47514 32.5305 10.0734 32.5603C10.6717 32.59 10.6792 32.2849 11.2775 32.3147C11.8758 32.3445 11.8683 32.3221 12.4666 32.3445C13.0499 32.3668 13.0425 32.6496 13.6258 32.6645C14.2091 32.6793 14.2166 32.3817 14.8074 32.3891C15.3908 32.404 15.3908 32.59 15.9741 32.5826C16.5499 32.5752 16.5574 32.6645 17.1333 32.6347C17.7091 32.6049 17.7091 32.5528 18.285 32.5231C18.8608 32.4933 18.8758 32.6347 19.4517 32.59C20.035 32.5454 20.02 32.4189 20.6034 32.3593C21.1867 32.2998 21.1792 32.2775 21.7626 32.2179C22.3459 32.1584 22.3235 31.9724 22.9068 31.9277C23.4976 31.8831 23.5126 32.0542 24.1109 32.017C24.7091 31.9798 24.7017 31.9054 25.3 31.8682C25.8983 31.831 25.8908 31.7789 26.4891 31.7417C26.519 31.7417 26.5489 31.9724 26.5788 31.9724C27.1547 31.9873 27.1621 31.7789 27.738 31.7938C28.3139 31.8086 28.3213 31.764 28.8972 31.7714C29.473 31.7863 29.473 32.0245 30.0564 31.9947C30.6322 31.9649 30.6098 31.764 31.1857 31.6896C31.7615 31.6152 31.7914 31.8384 32.3598 31.764C32.9282 31.6896 32.9132 31.5556 33.4891 31.4812C33.5414 31.4738 33.5938 31.6003 33.6461 31.6003C34.222 31.6152 34.222 31.511 34.7978 31.5259C35.3737 31.5407 35.3737 31.697 35.9496 31.7119C36.5254 31.7268 36.5329 31.6449 37.1087 31.6077C37.6846 31.5705 37.6846 31.5407 38.253 31.444C38.8214 31.3473 38.7914 31.1761 39.3598 31.0868C39.9282 30.99 39.9581 31.2059 40.534 31.1314C41.1921 31.0496 41.1846 30.9901 41.8427 30.9231C42.5009 30.8561 42.5233 31.0049 43.0543 30.618C43.4207 30.3501 43.144 30.298 43.1964 29.8515C43.2487 29.4049 43.2412 29.3975 43.2936 28.951C43.3459 28.5045 43.3833 28.5045 43.4357 28.058C43.503 27.4552 43.5105 27.4552 43.5778 26.8524C43.6376 26.2496 43.5703 26.2422 43.6301 25.6394C43.69 25.0366 43.7199 25.0366 43.7947 24.4338C43.8694 23.8311 43.847 23.8236 43.9368 23.2208C44.0265 22.618 44.191 22.6404 44.2808 22.0376C44.3705 21.4348 44.4004 21.4348 44.4752 20.8246C44.535 20.2813 44.4154 20.2739 44.4528 19.7306C44.4902 19.1874 44.6771 19.2023 44.7145 18.659C44.7519 18.1158 44.7444 18.1158 44.7893 17.5651C44.8267 17.0218 44.7295 17.0144 44.7669 16.4711C44.8043 15.9279 44.7744 15.9204 44.8118 15.3772C44.8491 14.8339 44.7295 14.8265 44.7669 14.2758C44.8043 13.7325 44.8865 13.74 44.9239 13.1893C44.9613 12.646 44.7893 12.6312 44.8267 12.0879C44.8641 11.5372 44.8641 11.5447 44.909 10.994C44.9464 10.4433 45.2231 10.4656 45.2605 9.92235C45.2605 9.89258 45.2231 9.86281 45.2306 9.83305C45.3128 9.34189 45.3727 9.35677 45.4474 8.86561C45.5297 8.37445 45.5596 8.3819 45.6344 7.89074C45.7167 7.39958 46.0308 7.20609 45.6643 6.87121C45.1932 6.43959 45.0062 6.81912 44.363 6.7968C43.7199 6.77447 43.7199 6.67773 43.0767 6.68517C42.4859 6.70749 42.4784 6.73726 41.8652 6.78935C41.2519 6.834 41.2744 7.10935 40.6611 7.16144C40.0479 7.21354 40.0479 7.19865 39.4346 7.23586C38.8064 7.27307 38.7989 7.09447 38.1707 7.12423C37.5425 7.154 37.55 7.34749 36.9293 7.37725C36.3011 7.40702 36.2936 7.26563 35.6728 7.29539C35.0521 7.3326 35.0671 7.45911 34.4463 7.49632C33.8256 7.53353 33.8256 7.44423 33.2049 7.48144C32.5842 7.51865 32.5916 7.61539 31.9784 7.66748C31.3651 7.71214 31.3502 7.52609 30.7369 7.57818C30.1237 7.63028 30.1386 7.80888 29.5254 7.86841C28.9121 7.92051 28.9047 7.86097 28.2914 7.91306C28.254 7.92051 28.2092 7.67493 28.1718 7.66748C27.5585 7.6526 27.5585 7.67493 26.9527 7.66004C26.3395 7.64516 26.3395 7.69725 25.7262 7.68237C25.113 7.66748 25.1055 7.60795 24.4997 7.63772C23.894 7.66748 23.8865 7.71958 23.2882 7.79399C22.6824 7.86841 22.6824 7.8833 22.0767 7.96516C21.4709 8.03957 21.4784 8.07678 20.8726 8.1512C20.8427 8.1512 20.8203 8.13632 20.7903 8.13632C20.1846 8.16608 20.192 8.3298 19.5788 8.35213C18.973 8.3819 18.9655 8.22562 18.3523 8.25539C17.7465 8.28515 17.7465 8.35213 17.1408 8.41911C16.535 8.49352 16.5499 8.55306 15.9442 8.66468C15.3459 8.78375 15.3085 8.61259 14.7102 8.73166C14.1119 8.85073 14.1493 9.0591 13.551 9.17073C13.5061 9.17817 13.4538 9.2377 13.4089 9.2377C12.9303 9.26747 12.9153 9.00701 12.4367 9.03677C11.9581 9.06654 11.973 9.31212 11.4944 9.34189C11.0157 9.37165 10.8736 8.9177 10.5147 9.2377C10.1632 9.54281 10.3875 9.69165 10.3053 10.153C10.223 10.607 10.4175 10.6442 10.3352 11.0981C10.2529 11.5521 9.99117 11.5074 9.90142 11.9614C9.78177 12.5642 10.0809 12.6237 9.9463 13.2191C9.81168 13.8144 9.48262 13.7474 9.348 14.3428C9.21339 14.9381 9.3854 14.9753 9.25078 15.5781C9.11617 16.1734 9.10869 16.166 8.97407 16.7614C8.83946 17.3567 9.01147 17.3939 8.87685 17.9892C8.74223 18.5846 8.68988 18.5697 8.57023 19.165C8.45057 19.7455 8.29351 19.7157 8.18881 20.3036C8.08411 20.8915 7.98689 20.8767 7.87471 21.4646C7.77001 22.0525 8.06168 22.1046 7.9495 22.6925C7.83732 23.2804 7.50826 23.2208 7.39608 23.8013C7.2839 24.3892 7.46339 24.4264 7.34373 25.0143C7.23155 25.6022 7.04458 25.5724 6.96232 26.1678C6.88005 26.7557 7.09693 26.7854 7.04458 27.3808C6.99223 27.9761 6.90249 27.9687 6.85014 28.564C6.79779 29.1594 6.86509 29.1668 6.79779 29.7622C6.723 30.4021 6.67813 30.3798 6.4762 30.9901C6.29672 31.5928 6.16958 31.7193 6.57343 32.2254Z" fill="#023866"/>
<path fill-rule="evenodd" clip-rule="evenodd" d="M50.2562 14.6033L50.7573 10.9792L50.6526 10.4434L49.9146 10.5068L46.9132 10.4434L43.1889 10.5699L39.472 11.0238L39.2314 11.0407L35.7476 11.0685L33.2888 11.1618L32.0083 11.0982L30.1487 11.2434L28.2839 11.2768L24.5671 11.5968L20.8576 11.9466L17.1408 12.2889L15.3465 12.6483L13.4164 12.8173L13.6076 13.0176L13.0948 16.4489L12.0029 19.9391L11.4719 23.5335L10.8587 27.113L9.9463 30.633L9.5948 34.2571L9.04138 37.978L12.7209 37.9334H16.2583L19.7957 37.8664L23.3331 37.7027L26.878 37.9631L30.4079 37.6506L33.9528 37.6357L37.4677 37.0701L41.0051 36.951L44.535 36.7203L48.1098 36.4748L48.5959 32.806L48.9026 29.1669L49.3064 25.5279L49.4261 21.8665L49.9047 18.2424L50.2562 14.6033Z" fill="white"/>
<path fill-rule="evenodd" clip-rule="evenodd" d="M29.8559 28.552C29.983 28.62 30.087 28.6757 30.2358 28.6757C30.303 28.6757 30.3815 28.6961 30.4585 28.7162C30.5788 28.7474 30.6955 28.7777 30.7593 28.7278C30.9888 28.5979 31.0927 28.5305 31.2038 28.4583C31.3028 28.3941 31.4076 28.3261 31.6119 28.2069C31.8306 28.0831 31.9181 27.9877 32.0067 27.891C32.0939 27.796 32.1821 27.6998 32.3972 27.5744C32.6197 27.4484 32.7143 27.3635 32.8112 27.2766C32.9032 27.1941 32.9972 27.1097 33.2048 26.9864C33.4241 26.8585 33.5478 26.82 33.6717 26.7815L33.6717 26.7815C33.7928 26.7437 33.914 26.706 34.1247 26.5846C34.1746 26.5548 34.2111 26.5118 34.2477 26.4688C34.266 26.4473 34.2843 26.4258 34.3042 26.406C34.5247 26.1828 34.635 26.0731 34.7453 25.9634L34.7455 25.9632L34.7456 25.963C34.8559 25.8533 34.9662 25.7436 35.1867 25.5204C35.4073 25.2972 35.5083 25.1781 35.6092 25.059C35.7102 24.94 35.8112 24.8209 36.0318 24.5976C36.2801 24.3464 36.4052 24.253 36.5499 24.1451C36.6622 24.0613 36.7863 23.9687 36.989 23.7865C37.1903 23.6024 37.2958 23.4883 37.3904 23.386C37.5138 23.2526 37.6188 23.139 37.894 22.9158C37.9223 22.8928 37.9493 22.8716 37.9752 22.8519C38.0053 22.9238 38.0439 23.0053 38.0958 23.1019C38.2478 23.385 38.3429 23.5064 38.4425 23.6336C38.5341 23.7505 38.6295 23.8723 38.7763 24.1289C38.9208 24.3795 38.9423 24.5371 38.9636 24.6928C38.9853 24.8515 39.0068 25.0084 39.1578 25.26C39.2977 25.4933 39.4082 25.5963 39.513 25.6939C39.6321 25.8049 39.7439 25.9091 39.8832 26.1903C40.0783 26.5842 40.1197 26.6927 40.2179 26.9506C40.2515 27.0386 40.2917 27.144 40.3469 27.2842C40.4553 27.5595 40.5039 27.6991 40.5525 27.8386C40.6011 27.9781 40.6497 28.1177 40.7582 28.393C40.772 28.424 40.765 28.4694 40.758 28.5151C40.7498 28.5681 40.7416 28.6215 40.7657 28.6535C40.9423 28.9077 41.0792 29.0004 41.2173 29.0939C41.3541 29.1865 41.492 29.2798 41.6706 29.5316C41.8226 29.7459 41.9076 29.8708 41.9828 29.9815C42.0853 30.1321 42.1698 30.2563 42.3811 30.5437C42.55 30.7776 42.5873 30.9307 42.624 31.0816C42.662 31.2378 42.6995 31.3916 42.8821 31.6302C43.0545 31.8553 43.1993 31.9346 43.338 32.0105C43.4882 32.0928 43.6312 32.1711 43.7945 32.4265C43.9562 32.6831 43.9514 32.853 43.9465 33.0295C43.9418 33.1959 43.937 33.3682 44.0712 33.6246C44.2127 33.8948 44.2916 34.0209 44.372 34.1494C44.4487 34.2722 44.5268 34.397 44.662 34.6516C44.6817 34.6868 44.7409 34.7015 44.8001 34.7161C44.8533 34.7293 44.9065 34.7425 44.9313 34.7706C45.1379 35.0067 45.2506 35.1123 45.3655 35.2199C45.4662 35.3143 45.5687 35.4103 45.7379 35.5975C45.7115 35.6033 45.6861 35.6092 45.6606 35.615C45.5316 35.6448 45.4026 35.6746 45.1409 35.6932C44.8685 35.7087 44.7399 35.7282 44.6054 35.7486C44.4814 35.7674 44.3525 35.7869 44.1013 35.8048C43.8433 35.8234 43.7143 35.8513 43.5853 35.8792C43.4563 35.9071 43.3273 35.935 43.0693 35.9536L43.0639 35.954L43.0612 35.9542L43.058 35.9544C42.5532 35.9908 42.5494 35.9911 42.0298 36.0281C41.7623 36.0471 41.6295 36.0117 41.4938 35.9755C41.3639 35.9409 41.2313 35.9055 40.9753 35.9164C40.6829 35.9312 40.537 35.9823 40.3927 36.033C40.2453 36.0847 40.0996 36.1358 39.8011 36.1471C39.5057 36.1583 39.3561 36.1211 39.2066 36.0839C39.057 36.0467 38.9074 36.0094 38.612 36.0206C38.2979 36.0286 38.1529 36.0388 37.9938 36.05L37.9937 36.05H37.9937C37.8573 36.0595 37.7105 36.0698 37.4379 36.0801C37.4154 36.0839 37.3967 36.095 37.378 36.1062C37.3593 36.1174 37.3406 36.1285 37.3182 36.1322C37.0298 36.177 36.8764 36.147 36.7238 36.1172C36.5717 36.0875 36.4203 36.0579 36.1366 36.1025C35.8551 36.1467 35.7149 36.18 35.5751 36.2131C35.4326 36.2469 35.2905 36.2806 34.9998 36.3257C34.8757 36.3469 34.779 36.3641 34.6977 36.3786L34.6975 36.3786C34.4068 36.4304 34.313 36.4471 33.8631 36.482C33.5963 36.5027 33.4547 36.5457 33.3223 36.586C33.169 36.6326 33.0279 36.6755 32.7188 36.6755C32.4262 36.6755 32.2804 36.6867 32.135 36.6979C31.9906 36.7091 31.8467 36.7201 31.5597 36.7201C31.2837 36.7237 31.14 36.7358 31.0018 36.7475H31.0017H31.0017C30.8515 36.7601 30.7078 36.7722 30.4079 36.7722C30.3999 36.7742 30.393 36.7762 30.3865 36.7781C30.3689 36.7831 30.3551 36.7871 30.3332 36.7871C30.0452 36.8132 29.8957 36.7573 29.7461 36.7015C29.5965 36.6457 29.4469 36.5899 29.159 36.616C28.8711 36.642 28.7309 36.6885 28.5906 36.735C28.4504 36.7815 28.3102 36.828 28.0222 36.8541C27.7648 36.8774 27.6225 36.9111 27.4923 36.9419C27.3313 36.98 27.189 37.0137 26.8705 37.0178C26.5392 37.022 26.3961 36.9927 26.2287 36.9583C26.1014 36.9322 25.9601 36.9031 25.7113 36.8839C25.4183 36.8614 25.2744 36.8259 25.1307 36.7903C24.9883 36.7552 24.8462 36.72 24.5596 36.6978C24.2717 36.6755 24.1296 36.642 23.9875 36.6085C23.8454 36.575 23.7033 36.5415 23.4154 36.5192C23.3919 36.5192 23.3644 36.5314 23.3381 36.5431C23.3141 36.5537 23.2912 36.5639 23.2733 36.5639C22.9817 36.5787 22.8358 36.5955 22.69 36.6122L22.69 36.6122C22.5441 36.629 22.3983 36.6457 22.1066 36.6606C21.815 36.6755 21.6673 36.6606 21.5196 36.6457C21.3719 36.6308 21.2242 36.616 20.9325 36.6308C20.659 36.6448 20.5138 36.6587 20.3765 36.6719L20.3764 36.6719C20.2209 36.6869 20.0756 36.7008 19.7658 36.7127C19.473 36.7238 19.3271 36.8043 19.1835 36.8836C19.0373 36.9644 18.8934 37.0438 18.5992 37.0476C18.2715 37.0559 18.1255 37.0549 17.9571 37.0537H17.9571H17.9571H17.957H17.957C17.8256 37.0528 17.6806 37.0518 17.425 37.055C17.1333 37.0587 16.9856 36.9992 16.8379 36.9397C16.6902 36.8801 16.5425 36.8206 16.2509 36.8243C15.9555 36.8243 15.8077 36.8113 15.66 36.7983C15.5123 36.7853 15.3646 36.7722 15.0692 36.7722C14.7738 36.7722 14.6261 36.8094 14.4784 36.8467C14.3307 36.8839 14.183 36.9211 13.8876 36.9211C13.5891 36.9211 13.4414 36.9667 13.2922 37.0127C13.146 37.0578 12.9983 37.1034 12.706 37.1071C12.4071 37.1107 12.2521 37.0297 12.1016 36.9456C12.1436 36.8908 12.1818 36.8461 12.2198 36.8016C12.3107 36.6951 12.4009 36.5894 12.541 36.3483C12.6884 36.0947 12.7764 35.9888 12.8705 35.8755C12.9531 35.7761 13.0404 35.671 13.1767 35.4553C13.3153 35.2375 13.3508 35.1047 13.3854 34.9748C13.4218 34.8385 13.4573 34.7053 13.6105 34.4804C13.7429 34.2861 13.7947 34.1588 13.8418 34.0431C13.9012 33.8974 13.953 33.7701 14.1489 33.5502C14.3397 33.328 14.4732 33.2703 14.62 33.2069C14.7436 33.1534 14.8767 33.0959 15.0613 32.9325C15.2633 32.7539 15.3437 32.6405 15.4241 32.527C15.5044 32.4135 15.5848 32.3 15.7868 32.1214C15.8175 32.0942 15.8777 32.0903 15.9391 32.0863C16.0124 32.0815 16.0873 32.0766 16.1158 32.0321C16.2617 31.8014 16.2897 31.6581 16.3177 31.5149C16.3458 31.3716 16.3738 31.2284 16.5197 30.9977C16.6721 30.7566 16.7918 30.674 16.9173 30.5874C17.0319 30.5083 17.1514 30.4259 17.3049 30.2163C17.4483 30.0239 17.5143 29.9069 17.5747 29.8001C17.6497 29.6673 17.7159 29.5501 17.9107 29.3233C18.0803 29.1258 18.175 29.0288 18.2671 28.9345C18.3659 28.8333 18.4617 28.7352 18.6436 28.5196C18.6549 28.5083 18.6888 28.5103 18.7216 28.5121C18.7542 28.514 18.7857 28.5158 18.7932 28.5047C18.9502 28.2814 19.0007 28.1493 19.0512 28.0172C19.1017 27.8851 19.1522 27.753 19.3092 27.5298C19.4629 27.3113 19.502 27.1713 19.5404 27.0338C19.5805 26.8902 19.6198 26.7494 19.7878 26.5252C19.9578 26.2996 20.0973 26.2298 20.238 26.1593C20.3759 26.0902 20.515 26.0206 20.6853 25.8033C20.8573 25.5838 20.9059 25.4442 20.9545 25.3047C21.0031 25.1652 21.0517 25.0256 21.2237 24.8061C21.2408 24.7857 21.2642 24.7746 21.2874 24.7636C21.3149 24.7506 21.3421 24.7376 21.3584 24.7094C21.493 24.4601 21.5378 24.3242 21.5827 24.1884C21.6276 24.0526 21.6725 23.9168 21.8071 23.6675C21.9401 23.4212 22.033 23.3111 22.1253 23.2026C22.2941 23.3746 22.3733 23.4836 22.4535 23.5943C22.5423 23.7167 22.6324 23.8409 22.8469 24.0544C22.862 24.0694 22.8542 24.111 22.8467 24.1514C22.8393 24.191 22.8321 24.2294 22.8469 24.2404C23.0862 24.4302 23.2115 24.5195 23.3368 24.6088L23.3368 24.6088C23.462 24.6981 23.5873 24.7874 23.8266 24.9772C24.0659 25.1669 24.2099 25.2302 24.3539 25.2934C24.4978 25.3567 24.6418 25.42 24.8811 25.6097C25.1204 25.7995 25.2494 25.8832 25.3784 25.9669L25.3784 25.9669C25.5075 26.0506 25.6365 26.1344 25.8758 26.3241C25.8976 26.3423 25.9089 26.3693 25.9198 26.3956C25.9313 26.4233 25.9425 26.4503 25.9655 26.4655C26.2048 26.5995 26.2964 26.713 26.3881 26.8265C26.4797 26.9399 26.5713 27.0534 26.8106 27.1874C27.0463 27.3214 27.1959 27.3288 27.3464 27.3362C27.4969 27.3437 27.6483 27.3511 27.8875 27.485C28.1231 27.6153 28.2316 27.7009 28.34 27.7864C28.4484 27.872 28.5569 27.9576 28.7924 28.0878C29.0304 28.2173 29.163 28.2604 29.2941 28.3029C29.4266 28.3459 29.5577 28.3885 29.7946 28.5195C29.8158 28.5305 29.8361 28.5414 29.8559 28.552ZM47.3367 34.746C47.3361 34.6935 47.3388 34.6351 47.3471 34.5695C47.377 34.3313 47.4069 34.2141 47.4368 34.0969C47.4667 33.9797 47.4967 33.8625 47.5266 33.6244C47.5568 33.3839 47.5203 33.2592 47.4835 33.1333C47.4473 33.0099 47.4109 32.8853 47.4368 32.6495C47.4666 32.3536 47.5535 32.2103 47.64 32.0679C47.7274 31.9238 47.8143 31.7806 47.8407 31.4811C47.8669 31.179 47.8293 31.0246 47.7918 30.8708C47.7545 30.7176 47.7173 30.5651 47.7435 30.2681C47.7695 29.9718 47.8085 29.8248 47.8476 29.6776C47.8871 29.529 47.9266 29.3802 47.9529 29.0774C47.9817 28.7868 47.9845 28.6345 47.9871 28.4872C47.99 28.329 47.9928 28.1765 48.0276 27.8644C48.0613 27.563 48.1024 27.4142 48.1435 27.2654L48.1436 27.2654C48.1847 27.1165 48.2258 26.9677 48.2595 26.6663C48.2901 26.3921 48.3238 26.2426 48.355 26.1044C48.3923 25.9388 48.4261 25.7893 48.4464 25.4607C48.4693 25.1538 48.3991 24.9993 48.3276 24.842C48.2587 24.6904 48.1886 24.5362 48.1996 24.2403C48.2109 23.9389 48.2539 23.7882 48.2969 23.6375C48.3399 23.4868 48.3829 23.3361 48.3941 23.0347C48.4053 22.7333 48.4128 22.5826 48.4203 22.4319C48.4277 22.2812 48.4352 22.1305 48.4464 21.8291C48.4464 21.8142 48.4408 21.7975 48.4352 21.7808L48.4352 21.7807C48.4296 21.764 48.424 21.7473 48.424 21.7324C48.4651 21.431 48.4894 21.2803 48.5137 21.1297L48.5138 21.1296L48.5138 21.1294C48.5381 20.9788 48.5624 20.8281 48.6035 20.5268C48.6437 20.2322 48.6893 20.0851 48.7341 19.9405C48.781 19.7892 48.827 19.6406 48.8652 19.3287C48.9114 18.9908 48.9222 18.84 48.9347 18.6665L48.9347 18.6664V18.6664C48.9445 18.5304 48.9553 18.3805 48.9849 18.1157C49.0096 17.8975 49.0262 17.7583 49.0403 17.6401L49.0404 17.6393L49.0405 17.6386C49.0648 17.4352 49.0817 17.2938 49.1195 16.9175C49.1495 16.6155 49.1081 16.4592 49.0669 16.3035C49.0258 16.1485 48.985 15.9941 49.0148 15.6971C49.0498 15.3487 49.072 15.2016 49.0994 15.0203C49.1188 14.8917 49.1408 14.7459 49.1719 14.499C49.2007 14.2587 49.2035 14.1325 49.2062 14.0113C49.209 13.8809 49.2118 13.7563 49.2467 13.5018C49.2803 13.2525 49.3289 13.1334 49.3775 13.0143C49.3862 12.9931 49.3949 12.9718 49.4035 12.9498C49.387 12.9649 49.3696 12.9802 49.3513 12.9959C49.1242 13.189 48.9832 13.2572 48.8458 13.3238C48.7026 13.3931 48.5632 13.4606 48.3342 13.6656C48.0929 13.8861 48.0001 14.0128 47.901 14.1483C47.8127 14.2689 47.7194 14.3965 47.5115 14.6033C47.2871 14.8228 47.16 14.9159 47.0329 15.0089C46.9057 15.1019 46.7786 15.1949 46.5542 15.4145C46.3299 15.634 46.2102 15.7345 46.0906 15.8349C45.9709 15.9354 45.8512 16.0359 45.6269 16.2554C45.6077 16.2745 45.5667 16.2622 45.5253 16.2497C45.4862 16.2379 45.4468 16.226 45.425 16.2405C45.1763 16.4177 45.0805 16.5492 44.985 16.6803C44.888 16.8134 44.7912 16.9461 44.535 17.1261C44.2827 17.306 44.1403 17.3726 43.9962 17.4401C43.8542 17.5066 43.7105 17.5739 43.4581 17.7512C43.164 17.9609 43.0631 18.0731 42.9362 18.2143C42.8469 18.3137 42.7447 18.4274 42.5532 18.5996C42.126 18.9835 42.1051 19.0074 41.7828 19.3753L41.6931 19.4777C41.4907 19.7047 41.3716 19.8056 41.2539 19.9054C41.1323 20.0084 41.0121 20.1102 40.8032 20.3484C40.6023 20.5737 40.4888 20.6801 40.3774 20.7846C40.2606 20.8941 40.1461 21.0015 39.9356 21.2414C39.9159 21.2611 39.8856 21.262 39.856 21.2629C39.8296 21.2638 39.8037 21.2646 39.7861 21.2786C39.6488 21.3899 39.5629 21.4847 39.4992 21.5722C39.5026 21.5938 39.5058 21.6151 39.5089 21.6364C39.5321 21.7931 39.5554 21.9508 39.6962 22.2163C39.8014 22.4097 39.8668 22.5342 39.9217 22.6389C40.019 22.8244 40.0836 22.9475 40.2796 23.2805C40.4289 23.5473 40.5273 23.6638 40.6279 23.783C40.7238 23.8964 40.8217 24.0123 40.9676 24.2628C41.1194 24.5171 41.1796 24.6546 41.2388 24.79C41.2992 24.9281 41.3587 25.0641 41.5135 25.3196C41.5271 25.3398 41.5514 25.3508 41.5753 25.3617C41.6042 25.3749 41.6325 25.3878 41.6407 25.4163C41.7491 25.6879 41.8351 25.8107 41.9211 25.9335C42.0071 26.0563 42.0931 26.1791 42.2016 26.4507C42.3037 26.7064 42.3014 26.8681 42.2992 27.0213C42.2967 27.1934 42.2944 27.3547 42.4409 27.6265C42.6479 28.0107 42.7168 28.1075 42.8762 28.3313C42.9299 28.4067 42.9937 28.4964 43.0766 28.6163C43.2442 28.8589 43.371 28.947 43.5006 29.037C43.6255 29.1238 43.7529 29.2123 43.9217 29.4423C44.1071 29.6975 44.2051 29.8097 44.309 29.9288C44.4021 30.0354 44.4999 30.1475 44.6695 30.3725C44.849 30.6107 44.9518 30.7204 45.0547 30.8302C45.1575 30.94 45.2603 31.0497 45.4398 31.2879C45.4587 31.3104 45.4149 31.3706 45.3706 31.4316C45.327 31.4916 45.2829 31.5522 45.2977 31.5781C45.4307 31.8318 45.5181 31.9492 45.6049 32.0659C45.6939 32.1855 45.7822 32.3043 45.9185 32.5679C46.0874 32.8948 46.171 33.0019 46.2911 33.1559C46.3624 33.2473 46.4466 33.3552 46.5691 33.5353C46.7174 33.7499 46.7731 33.889 46.8243 34.0172C46.8869 34.1735 46.9429 34.3136 47.1524 34.5548C47.2214 34.6342 47.2817 34.6957 47.3367 34.746ZM10.26 36.3037C10.1843 36.4306 10.1346 36.5671 10.1115 36.7043C10.0178 36.5009 10.08 36.3582 10.164 36.1652C10.2234 36.0287 10.2938 35.8671 10.3278 35.6411C10.3748 35.3281 10.4288 35.1699 10.4813 35.0159C10.5374 34.8515 10.5919 34.6919 10.6344 34.3537C10.6804 33.9916 10.6896 33.8497 10.7021 33.6568C10.7099 33.5365 10.719 33.3963 10.7391 33.1704C10.7649 32.8811 10.749 32.7306 10.7333 32.5822C10.7171 32.4291 10.7012 32.2783 10.7316 31.9797C10.7495 31.804 10.76 31.6795 10.7688 31.5758C10.7894 31.3324 10.8003 31.2035 10.8737 30.7965C10.9163 30.5605 10.9292 30.4143 10.9405 30.2854C10.9572 30.0972 10.9705 29.9459 11.0682 29.6058C11.1548 29.3438 11.2269 29.2112 11.2943 29.0873C11.3724 28.9438 11.4441 28.812 11.5244 28.5044C11.6008 28.2076 11.6441 28.0645 11.6881 27.9189C11.7301 27.7798 11.7728 27.6384 11.8459 27.3584C11.8497 27.3435 11.8796 27.3342 11.9095 27.3249C11.9394 27.3156 11.9693 27.3063 11.9731 27.2914C12.0196 27.0068 12.0353 26.8565 12.0504 26.7113C12.067 26.5529 12.083 26.4004 12.1376 26.0858C12.19 25.7844 12.1656 25.6263 12.1413 25.4682C12.117 25.31 12.0927 25.1519 12.1451 24.8505C12.199 24.5442 12.2073 24.3935 12.2159 24.2373C12.2241 24.0899 12.2325 23.9375 12.2797 23.6449C12.328 23.3527 12.4225 23.2168 12.5164 23.0818C12.6114 22.9451 12.7057 22.8095 12.7508 22.5138C12.7957 22.2198 12.777 22.0673 12.7583 21.9147C12.7396 21.7621 12.7209 21.6096 12.7658 21.3156C12.8299 20.8579 12.8531 20.7611 12.9238 20.4666L12.9238 20.4666L12.9239 20.4664C12.944 20.3827 12.9679 20.2831 12.9976 20.1547C13.1323 19.5743 13.1323 19.5743 13.3117 19.0087L13.3117 19.0087C13.3989 18.722 13.4727 18.5883 13.5476 18.4525C13.6204 18.3203 13.6944 18.1862 13.7829 17.9073C13.868 17.6274 13.8652 17.4714 13.8624 17.3167C13.8596 17.1588 13.8568 17.0022 13.9474 16.7166C13.954 16.6938 13.9634 16.6753 13.9725 16.6573L13.9725 16.6573C13.9843 16.6342 13.9956 16.612 13.9998 16.5827C14.0334 16.352 14.0316 16.2348 14.0297 16.1176C14.0278 16.0003 14.026 15.8831 14.0596 15.6524C14.0933 15.4217 14.1793 15.3176 14.2653 15.2134C14.3044 15.1659 14.3436 15.1185 14.3778 15.0591C14.4175 15.0978 14.4606 15.1413 14.5082 15.1912C14.7197 15.4127 14.7674 15.5811 14.8147 15.7482C14.8627 15.9179 14.9104 16.0862 15.129 16.3075C15.34 16.5213 15.5055 16.5687 15.6723 16.6165C15.8365 16.6636 16.0019 16.711 16.2134 16.9177C16.4265 17.1261 16.5106 17.2544 16.5948 17.3828C16.6789 17.5112 16.763 17.6396 16.9762 17.8479C17.1759 18.0466 17.2956 18.1371 17.4109 18.2241C17.5374 18.3196 17.6584 18.4109 17.8736 18.6368C18.0936 18.8671 18.1682 19.0084 18.2454 19.1545C18.3178 19.2916 18.3925 19.4329 18.5916 19.6563C18.7972 19.887 18.8758 20.0247 18.9543 20.1623C19.0328 20.3 19.1113 20.4377 19.317 20.6684C19.4375 20.8035 19.522 20.8997 19.5921 20.9794C19.7612 21.1718 19.8457 21.268 20.1471 21.5837C20.325 21.7733 20.4556 21.8542 20.5803 21.9176C20.4931 22.0635 20.4234 22.1466 20.3534 22.23C20.2646 22.3358 20.1754 22.4421 20.0496 22.6777C19.9292 22.9033 19.9127 23.0504 19.897 23.191C19.8796 23.3473 19.863 23.4955 19.7056 23.7345C19.5858 23.9146 19.5186 24.029 19.4605 24.1276L19.4605 24.1276C19.37 24.2815 19.302 24.3971 19.0923 24.6647C18.9211 24.8833 18.7665 24.9414 18.6139 24.9988C18.4599 25.0567 18.3078 25.1139 18.1425 25.3345C17.9735 25.56 17.9249 25.6952 17.8749 25.8338C17.8277 25.9652 17.7793 26.0996 17.6265 26.3168C17.4533 26.5631 17.3596 26.6622 17.254 26.774C17.1682 26.8649 17.0744 26.9642 16.9235 27.1577C16.7807 27.3408 16.7053 27.4503 16.6383 27.5475L16.6382 27.5475C16.5473 27.6793 16.472 27.7885 16.2654 28.0284C16.0859 28.2368 15.9924 28.3372 15.8989 28.4377L15.8989 28.4377C15.8055 28.5382 15.712 28.6386 15.5325 28.847C15.517 28.8663 15.5577 28.9255 15.5974 28.9833C15.6344 29.037 15.6704 29.0895 15.6596 29.1075C15.5212 29.3213 15.429 29.4186 15.3388 29.5138C15.2437 29.614 15.151 29.7119 15.009 29.9409C14.8497 30.1979 14.7499 30.2799 14.6283 30.3797C14.5386 30.4534 14.4371 30.5368 14.291 30.7074C14.1402 30.8869 14.0785 31.0077 14.0227 31.1169C13.9513 31.2567 13.8896 31.3775 13.6628 31.5781C13.4609 31.7567 13.3544 31.8386 13.2478 31.9204L13.2478 31.9205L13.2477 31.9205C13.1412 32.0023 13.0346 32.0842 12.8327 32.2628C12.8047 32.2872 12.7405 32.2871 12.6756 32.287C12.602 32.2869 12.5275 32.2867 12.5036 32.3223C12.3429 32.5604 12.3167 32.7167 12.2905 32.873C12.2643 33.0293 12.2382 33.1856 12.0774 33.4237C11.921 33.6552 11.8106 33.7566 11.7032 33.8553C11.5897 33.9595 11.4796 34.0607 11.322 34.3093C11.1536 34.5709 11.0957 34.6978 11.0307 34.8404C10.9773 34.9575 10.9191 35.0851 10.791 35.3065C10.6516 35.5475 10.5896 35.6756 10.529 35.8007C10.4661 35.9306 10.4048 36.0573 10.26 36.3037ZM13.4594 11.8605C13.4184 11.8643 13.3744 11.8682 13.3266 11.8722C12.9452 11.9019 12.5862 12.0954 12.4516 12.4526C12.3176 12.8082 12.3022 13.3186 12.5676 13.6022C12.558 13.7014 12.544 13.821 12.519 13.9929C12.4778 14.2727 12.4685 14.4141 12.4591 14.5569C12.4498 14.6988 12.4404 14.842 12.3994 15.1241C12.3622 15.358 12.3494 15.499 12.3382 15.6229C12.3222 15.7985 12.3094 15.9397 12.2348 16.2627C12.1649 16.564 12.0487 16.6869 11.9279 16.8144C11.8161 16.9326 11.7004 17.0549 11.6141 17.3268C11.5244 17.6096 11.5131 17.7622 11.5019 17.9147C11.4907 18.0673 11.4795 18.2199 11.3897 18.5026C11.3 18.7854 11.2701 18.9324 11.2402 19.0794C11.2102 19.2264 11.1803 19.3733 11.0906 19.6561C11.0835 19.6807 11.0664 19.7004 11.0496 19.7197C11.0308 19.7413 11.0123 19.7626 11.0083 19.7901C10.9635 20.0877 10.9167 20.2329 10.87 20.378C10.8232 20.5231 10.7765 20.6682 10.7316 20.9659C10.6867 21.2635 10.6419 21.4087 10.597 21.5538C10.5521 21.6989 10.5073 21.844 10.4624 22.1417C10.4191 22.4288 10.4089 22.5792 10.399 22.7248C10.3883 22.881 10.3781 23.0316 10.3278 23.3398C10.2815 23.6194 10.2657 23.7677 10.2506 23.9096C10.234 24.0661 10.2181 24.2147 10.1632 24.523C10.1133 24.8291 10.0672 24.9739 10.0201 25.1222C9.97549 25.2624 9.92992 25.4058 9.87905 25.6914C9.83731 25.9438 9.82314 26.0892 9.8105 26.2189C9.7937 26.3913 9.7796 26.5359 9.70704 26.8672C9.6447 27.1555 9.68126 27.3185 9.71708 27.4783C9.75431 27.6443 9.79075 27.8067 9.71452 28.1026C9.63973 28.3928 9.5986 28.5379 9.55747 28.683C9.51633 28.8281 9.4752 28.9732 9.40041 29.2635C9.32563 29.5537 9.22841 29.6839 9.13118 29.8142C9.03396 29.9444 8.93674 30.0746 8.86195 30.3649C8.85511 30.3887 8.83888 30.4141 8.82257 30.4396C8.80322 30.4698 8.78374 30.5003 8.77969 30.5286C8.75384 30.8225 8.77721 30.9749 8.8003 31.1255C8.82398 31.2801 8.84737 31.4327 8.81708 31.7341C8.79117 32.0288 8.82388 32.1813 8.85628 32.3323C8.88934 32.4864 8.92209 32.639 8.89187 32.9397C8.8653 33.2419 8.76359 33.3811 8.66008 33.5228C8.55966 33.6602 8.45754 33.8 8.42071 34.0932C8.39555 34.3185 8.40494 34.4373 8.41401 34.5519C8.42381 34.6758 8.43323 34.7948 8.39828 35.0383C8.36036 35.276 8.37627 35.397 8.3924 35.5197C8.40809 35.6389 8.42398 35.7597 8.3908 35.9908C8.35714 36.2253 8.31227 36.3369 8.2674 36.4485C8.22253 36.5601 8.17766 36.6718 8.144 36.9062C8.11035 37.1369 8.09539 37.2541 8.08043 37.3713C8.06548 37.4885 8.05052 37.6057 8.01686 37.8364C7.97199 38.1266 8.15896 38.3573 8.3534 38.5806C8.54785 38.7964 8.74977 38.9155 9.04144 38.9155C9.04144 38.9155 9.04892 39.1164 9.02648 39.0941C9.32838 39.0904 9.47982 39.0608 9.63169 39.0311C9.78456 39.0012 9.93787 38.9713 10.2455 38.9676C10.5521 38.9638 10.7054 38.9657 10.8586 38.9676H10.8588C11.0121 38.9694 11.1654 38.9713 11.472 38.9676C11.7735 38.9639 11.9249 38.9583 12.0766 38.9528H12.0767H12.0767C12.2297 38.9471 12.383 38.9415 12.691 38.9378C12.9911 38.9378 13.1407 38.9584 13.2898 38.9789C13.4379 38.9993 13.5856 39.0197 13.8801 39.0197C14.1802 39.0197 14.3298 39.0346 14.4789 39.0496L14.4789 39.0496C14.6271 39.0644 14.7748 39.0792 15.0692 39.0792C15.3702 39.0792 15.5198 39.0792 15.6694 39.0782C15.8171 39.0773 15.9648 39.0754 16.2583 39.0717C16.5575 39.068 16.7052 39.0066 16.8529 38.9452C17.0006 38.8838 17.1483 38.8224 17.4474 38.8187C17.7466 38.815 17.8943 38.7871 18.042 38.7592C18.1897 38.7313 18.3374 38.7034 18.6365 38.6997C18.9287 38.696 19.08 38.7778 19.2298 38.8588C19.3829 38.9416 19.5344 39.0235 19.8331 39.0122C20.1216 39.001 20.2618 38.9114 20.4033 38.821C20.5442 38.7309 20.6863 38.6401 20.9774 38.6252C21.269 38.6104 21.4149 38.6345 21.5607 38.6587C21.7065 38.6829 21.8524 38.7071 22.144 38.6922C22.4501 38.6803 22.5956 38.7084 22.7512 38.7385C22.8884 38.7649 23.0334 38.7929 23.3032 38.7964C23.583 38.8 23.7303 38.7488 23.8722 38.6994C24.0262 38.6459 24.1738 38.5946 24.4774 38.6178C24.7722 38.6366 24.9142 38.6877 25.0579 38.7395C25.1985 38.7901 25.3406 38.8413 25.6291 38.8634C25.944 38.8835 26.0868 38.8992 26.2432 38.9165H26.2433L26.2433 38.9165C26.3766 38.9312 26.52 38.947 26.7883 38.9676C26.817 38.9711 26.8474 38.9987 26.8771 39.0256C26.9093 39.0547 26.9405 39.0831 26.9678 39.0792C27.2594 39.0531 27.4034 39.0308 27.5474 39.0085C27.6913 38.9862 27.8353 38.9638 28.127 38.9378C28.4186 38.9117 28.5588 38.8485 28.6991 38.7852C28.8393 38.722 28.9795 38.6587 29.2712 38.6327C29.5468 38.6113 29.6905 38.578 29.8293 38.5458C29.9806 38.5108 30.1262 38.477 30.4304 38.4615C30.7289 38.4463 30.8766 38.5227 31.0279 38.6009C31.1722 38.6755 31.3197 38.7517 31.6045 38.7517C31.8962 38.7517 32.042 38.7108 32.1879 38.6699C32.3337 38.629 32.4795 38.588 32.7712 38.588C33.0629 38.588 33.2087 38.6029 33.3545 38.6178C33.5004 38.6327 33.6462 38.6476 33.9379 38.6476C33.9614 38.6476 33.987 38.6353 34.0136 38.6225L34.0136 38.6225C34.0377 38.611 34.0625 38.599 34.0874 38.5955C34.3672 38.5515 34.5147 38.5598 34.661 38.5681C34.8119 38.5766 34.9617 38.5851 35.2541 38.5359C35.5395 38.488 35.6761 38.4163 35.8114 38.3453C35.9491 38.273 36.0854 38.2015 36.3759 38.1564C36.5015 38.1353 36.6001 38.1181 36.6834 38.1036L36.6838 38.1035L36.6842 38.1034C36.9823 38.0514 37.0853 38.0334 37.5351 37.9927C37.7691 37.9718 37.9105 37.9533 38.0335 37.9372L38.0336 37.9372L38.0336 37.9372C38.2172 37.9131 38.36 37.8944 38.7092 37.8811C39.0035 37.8736 39.1531 37.9382 39.3011 38.0022C39.4504 38.0666 39.5981 38.1304 39.8909 38.1192C40.1916 38.1077 40.3373 38.0863 40.4879 38.0642C40.6293 38.0434 40.775 38.022 41.0575 38.0076C41.3137 37.9963 41.437 37.9284 41.5613 37.86C41.6838 37.7926 41.8073 37.7247 42.0597 37.7099C42.3086 37.6953 42.4375 37.7093 42.5638 37.723C42.6956 37.7372 42.8246 37.7512 43.0843 37.7322C43.3463 37.7169 43.4713 37.6936 43.6005 37.6696C43.7221 37.647 43.8474 37.6237 44.0939 37.6057C44.3168 37.5927 44.442 37.5882 44.5552 37.5842H44.5553C44.7002 37.579 44.8254 37.5745 45.111 37.5536C45.3636 37.5388 45.4963 37.6067 45.6282 37.6742C45.7618 37.7425 45.8946 37.8105 46.1505 37.7918C46.4048 37.7732 46.53 37.7527 46.6553 37.7322C46.7806 37.7118 46.9058 37.6913 47.1601 37.6727C47.4144 37.6541 47.5378 37.6057 47.6612 37.5573C47.7846 37.509 47.908 37.4606 48.1623 37.442C48.6409 37.4122 48.8652 37.055 48.9251 36.5787C48.9662 36.2699 49.0242 36.1192 49.0821 35.9685C49.1401 35.8178 49.198 35.6671 49.2392 35.3583C49.2803 35.0495 49.2728 34.8913 49.2654 34.7332C49.2579 34.575 49.2504 34.4169 49.2915 34.1081C49.3156 33.9272 49.3333 33.7992 49.3479 33.6933C49.3833 33.4374 49.401 33.3095 49.4486 32.8727C49.475 32.6064 49.4927 32.4592 49.5087 32.3259C49.5289 32.1574 49.5465 32.0111 49.5757 31.6746C49.6019 31.3732 49.6636 31.2262 49.7253 31.0793C49.787 30.9323 49.8487 30.7853 49.8749 30.4839C49.8997 30.1976 49.9043 30.0473 49.9088 29.9038V29.9037C49.9136 29.7451 49.9182 29.5948 49.9496 29.2784C49.9792 28.9768 49.9595 28.8206 49.9401 28.667C49.9202 28.5098 49.9006 28.3554 49.9347 28.0505C49.9683 27.7491 50.0001 27.5984 50.0319 27.4477C50.0637 27.297 50.0955 27.1463 50.1291 26.8449C50.1628 26.5435 50.1647 26.3909 50.1665 26.2384C50.1684 26.0858 50.1703 25.9333 50.2039 25.6319C50.2039 25.6207 50.2394 25.6096 50.275 25.5984C50.3105 25.5872 50.346 25.5761 50.346 25.5649C50.3572 25.2635 50.303 25.111 50.2488 24.9584C50.1946 24.8058 50.1404 24.6533 50.1516 24.3519C50.1628 24.0505 50.1871 23.8998 50.2114 23.7491C50.2357 23.5984 50.26 23.4477 50.2712 23.1463C50.284 22.8036 50.3064 22.6582 50.333 22.4857V22.4856C50.3532 22.3547 50.3758 22.2082 50.3984 21.9482C50.4203 21.6955 50.4252 21.5474 50.4295 21.4162C50.4354 21.2345 50.4403 21.0852 50.4881 20.7352C50.5292 20.4338 50.6134 20.2924 50.6975 20.151C50.7816 20.0096 50.8658 19.8682 50.9069 19.5668C50.9488 19.2602 50.9113 19.1019 50.8732 18.941C50.8364 18.7855 50.7991 18.6277 50.8321 18.3315C50.8647 18.0436 50.8972 17.8967 50.9289 17.7536C50.9628 17.6007 50.9957 17.4521 51.0266 17.1408C51.052 16.8516 51.0492 16.7011 51.0464 16.5537V16.5537C51.0435 16.3977 51.0407 16.2452 51.0714 15.9352C51.1004 15.6433 51.1013 15.491 51.1022 15.3439C51.1031 15.1873 51.104 15.0367 51.1388 14.7297C51.1763 14.4274 51.257 14.286 51.3386 14.1433C51.4197 14.0014 51.5016 13.8581 51.5426 13.5539C51.5838 13.2481 51.5312 13.0862 51.4787 12.9249C51.4265 12.7643 51.3744 12.6044 51.4155 12.3036C51.4566 12.0022 51.5089 11.8553 51.5613 11.7083C51.6136 11.5613 51.666 11.4143 51.7071 11.1129C51.7131 11.0712 51.7324 11.027 51.7518 10.9823C51.7808 10.9157 51.8103 10.8479 51.7969 10.7855C51.7741 10.6497 51.7322 10.5885 51.6895 10.5262C51.648 10.4657 51.6058 10.4041 51.58 10.272C51.4902 9.75854 51.064 9.38645 50.5405 9.4311C50.2338 9.45715 50.0768 9.43855 49.9197 9.41994C49.7627 9.40134 49.6056 9.38273 49.299 9.40878C49.1267 9.42551 49.0033 9.44224 48.9015 9.45881C48.8106 9.45169 48.7374 9.44344 48.6641 9.43519C48.5149 9.41838 48.3653 9.40153 48.0649 9.39406C47.7798 9.38696 47.6305 9.3562 47.4876 9.32675C47.3307 9.29441 47.1815 9.26365 46.8683 9.26755C46.5537 9.27132 46.3985 9.34203 46.2411 9.41375C46.0881 9.4835 45.9329 9.55421 45.6269 9.56522C45.3165 9.57638 45.1595 9.53731 45.0024 9.49824C44.8454 9.45917 44.6883 9.4201 44.378 9.43127C44.0676 9.44243 43.9143 9.50754 43.761 9.57266C43.6077 9.63778 43.4543 9.70289 43.144 9.71405C43.1288 9.71784 43.1097 9.65229 43.0906 9.58697C43.0723 9.52389 43.054 9.46103 43.0393 9.46103C42.7384 9.49799 42.5889 9.53127 42.4394 9.56454C42.2879 9.59825 42.1364 9.63194 41.8277 9.6694C41.5211 9.70661 41.3697 9.73452 41.2182 9.76243C41.0668 9.79033 40.9153 9.81824 40.6087 9.85545C40.2891 9.89472 40.136 9.89461 39.9726 9.89451C39.8264 9.89441 39.6719 9.89431 39.3822 9.92242C39.0571 9.95438 38.9064 9.94774 38.7418 9.94049C38.6441 9.93618 38.5414 9.93166 38.3944 9.93487C38.333 9.93075 38.2643 9.92877 38.1857 9.9297C37.9922 9.932 37.8589 9.96044 37.7489 9.99891C37.6758 10.0152 37.6138 10.0334 37.5514 10.0516C37.4038 10.0948 37.2542 10.1385 36.9517 10.1606C36.7318 10.1766 36.5917 10.1964 36.4742 10.2156C36.4228 10.2119 36.3759 10.2077 36.3293 10.2035C36.1684 10.1891 36.0115 10.1751 35.6879 10.1827C35.384 10.19 35.2288 10.1723 35.0768 10.155C34.9183 10.1369 34.7632 10.1192 34.4464 10.1306C34.136 10.1418 33.9827 10.1623 33.8294 10.1827C33.6761 10.2032 33.5228 10.2237 33.2124 10.2348C32.9878 10.2429 32.8444 10.2344 32.7235 10.221C32.7004 10.2133 32.6778 10.2056 32.6552 10.1978C32.5037 10.1457 32.3523 10.0936 32.0457 10.0787C32.0232 10.0787 32.0027 10.1029 31.9821 10.1271C31.9679 10.1437 31.9538 10.1604 31.939 10.1691C31.8899 10.1716 31.8461 10.176 31.8065 10.1819C31.5654 10.1892 31.4265 10.1461 31.2866 10.1027C31.1289 10.0537 30.9701 10.0045 30.6621 10.0266C30.4588 10.0412 30.3244 10.0726 30.2139 10.1098C30.1694 10.1033 30.12 10.1 30.0639 10.1009C29.8283 10.1046 29.7106 10.1604 29.5928 10.2162C29.475 10.272 29.3572 10.3278 29.1216 10.3316C28.8994 10.335 28.7804 10.3208 28.6695 10.3076C28.5415 10.2924 28.4243 10.2784 28.1718 10.2944C27.9042 10.3121 27.7625 10.3027 27.6267 10.2938C27.4778 10.2839 27.3358 10.2746 27.0425 10.3018C26.7508 10.325 26.6128 10.3483 26.4686 10.3725C26.4122 10.382 26.3548 10.3917 26.287 10.4016C26.1467 10.3905 25.9922 10.3823 25.7187 10.3987C25.4151 10.4208 25.2655 10.5013 25.1165 10.5814L25.0882 10.5966C25.0147 10.6083 24.9284 10.6193 24.8214 10.6292C24.5354 10.6523 24.3992 10.6754 24.2569 10.6995C24.1974 10.7096 24.1368 10.7198 24.0636 10.7304C23.9535 10.7228 23.8655 10.7011 23.7779 10.6796C23.614 10.6393 23.4512 10.5992 23.1461 10.6517C22.8432 10.7038 22.6992 10.7726 22.5553 10.8415C22.4456 10.8939 22.3359 10.9464 22.156 10.9914L22.0506 11.0013C21.9122 11.0143 21.7739 11.0274 21.4934 11.0534C21.2167 11.0795 21.0727 11.046 20.9288 11.0125C20.7848 10.979 20.6408 10.9455 20.3641 10.9716C20.0811 10.9941 19.9466 11.0545 19.8107 11.1155C19.6773 11.1755 19.5426 11.236 19.2648 11.2618C18.9837 11.2879 18.8397 11.2579 18.6963 11.2281C18.5536 11.1984 18.4115 11.1688 18.1355 11.1948C17.8359 11.219 17.6985 11.2366 17.5476 11.256C17.4199 11.2724 17.2824 11.29 17.0286 11.3139C17.0086 11.3139 16.9929 11.3267 16.9769 11.3397C16.963 11.351 16.9488 11.3625 16.9314 11.366C16.636 11.4255 16.479 11.4032 16.3219 11.3809C16.1649 11.3585 16.0078 11.3362 15.7124 11.3957C15.4245 11.4545 15.2805 11.4933 15.1374 11.5319C14.9907 11.5715 14.8449 11.6108 14.5457 11.6711C14.2503 11.7306 14.1026 11.7529 13.9549 11.7753L13.9549 11.7753C13.824 11.7951 13.6931 11.8148 13.4594 11.8605ZM15.7636 13.4367C15.7421 13.4792 15.732 13.5451 15.7347 13.6433C15.7488 14.142 15.9095 14.2262 16.1655 14.3603C16.3182 14.4403 16.5048 14.538 16.7144 14.7521C16.9108 14.9545 17.0085 15.0685 17.1008 15.1763L17.1009 15.1763L17.1009 15.1763C17.2055 15.2984 17.3032 15.4124 17.5296 15.6377C17.9558 16.0618 17.9559 16.0619 18.3893 16.4857L18.3894 16.4858L18.3894 16.4858L18.3896 16.4861C18.6146 16.7099 18.7021 16.8343 18.795 16.9664L18.795 16.9664C18.8782 17.0846 18.9657 17.2089 19.1599 17.4163C19.3567 17.6224 19.4738 17.7239 19.5833 17.8187L19.5833 17.8187C19.711 17.9294 19.8284 18.0311 20.0499 18.2796C20.2556 18.5102 20.3434 18.6405 20.4313 18.7707L20.4313 18.7707L20.4313 18.7707C20.5192 18.9009 20.6071 19.0312 20.8127 19.2619C21.0213 19.4958 21.1721 19.5671 21.3258 19.6398C21.4751 19.7104 21.6271 19.7822 21.8373 20.0061C22.0328 20.2113 22.1108 20.3382 22.1869 20.4617C22.2679 20.5934 22.3466 20.7212 22.5627 20.9363C22.7721 21.1446 22.8918 21.2321 23.0115 21.3195C23.1311 21.407 23.2508 21.4944 23.4602 21.7028C23.6561 21.8977 23.7407 22.0194 23.8205 22.134C23.9112 22.2645 23.9956 22.3859 24.2305 22.5958C24.3716 22.7196 24.4668 22.8053 24.546 22.8766L24.546 22.8766C24.7144 23.0281 24.8102 23.1143 25.1204 23.3623C25.3721 23.5602 25.4652 23.6727 25.5682 23.7972C25.655 23.902 25.7488 24.0155 25.9506 24.1958C26.2172 24.4021 26.3521 24.475 26.5071 24.5588C26.6259 24.623 26.7566 24.6936 26.9677 24.8358C27.4442 25.1565 27.4808 25.1767 27.9265 25.4229L28.0221 25.4758C28.2914 25.6246 28.4391 25.6767 28.5868 25.7288C28.7345 25.7809 28.8822 25.833 29.1514 25.9818C29.3694 26.1023 29.4857 26.235 29.5875 26.3513C29.7373 26.5222 29.8559 26.6576 30.2209 26.6665C30.5283 26.6748 30.6104 26.511 30.7077 26.317C30.7831 26.1665 30.8676 25.9979 31.0734 25.8776C31.309 25.7399 31.4548 25.7176 31.6007 25.6953C31.7465 25.673 31.8923 25.6506 32.1279 25.513C32.333 25.3931 32.4659 25.3466 32.5856 25.3046C32.741 25.2502 32.8744 25.2035 33.1151 25.0144C33.388 24.798 33.4785 24.6711 33.5849 24.5221C33.6652 24.4097 33.7545 24.2846 33.9378 24.099C34.15 23.8842 34.2287 23.7486 34.3078 23.6125C34.3876 23.4751 34.4678 23.3372 34.6856 23.1167C34.8906 22.9092 34.9918 22.7945 35.0899 22.6835C35.1958 22.5636 35.298 22.4478 35.5232 22.2237C35.5342 22.2127 35.5705 22.2233 35.6081 22.2343C35.6471 22.2456 35.6875 22.2574 35.7027 22.246C35.9485 22.0435 36.0838 21.9646 36.2232 21.8834C36.3552 21.8064 36.4908 21.7273 36.7273 21.5391C36.9666 21.3419 37.0807 21.2358 37.1947 21.1298C37.3088 21.0237 37.4228 20.9177 37.6621 20.7205C37.918 20.5096 38.0071 20.3796 38.1033 20.2394C38.187 20.1174 38.2759 19.9877 38.4848 19.7902C38.7514 19.5338 38.8411 19.4192 38.9578 19.2701L38.9578 19.2701C39.0376 19.1683 39.13 19.0503 39.2999 18.86C39.5076 18.6276 39.6361 18.5324 39.7631 18.4383C39.8923 18.3426 40.0199 18.2481 40.2273 18.0117C40.4351 17.7791 40.5655 17.6857 40.6945 17.5934C40.8255 17.4996 40.9549 17.407 41.1621 17.1707C41.1863 17.1467 41.1977 17.1131 41.2089 17.0803C41.2219 17.042 41.2346 17.0047 41.2668 16.9847C41.5211 16.8024 41.6669 16.7372 41.8128 16.6721C41.9586 16.607 42.1044 16.5419 42.3587 16.3596C42.613 16.1772 42.6915 16.021 42.77 15.8647C42.8486 15.7084 42.9271 15.5521 43.1814 15.3698C43.4275 15.1933 43.607 15.1702 43.781 15.1479C43.9666 15.124 44.1459 15.1009 44.3929 14.8935C44.6508 14.677 44.7437 14.5469 44.8447 14.4055C44.9311 14.2844 45.0235 14.155 45.2305 13.9559C45.4558 13.7354 45.5284 13.5863 45.6007 13.4378C45.6723 13.2905 45.7437 13.1438 45.9634 12.9289C46.2015 12.6959 46.3343 12.6096 46.4758 12.5177C46.601 12.4363 46.733 12.3506 46.9506 12.155C47.1059 12.0123 47.2863 11.9587 47.4432 11.912C47.5838 11.8702 47.7055 11.834 47.7732 11.7443C47.7388 11.7424 47.7058 11.7402 47.6727 11.738C47.5056 11.7269 47.3392 11.7158 47.0105 11.7455C46.9956 11.7455 46.9806 11.7139 46.9657 11.6822C46.9507 11.6506 46.9358 11.619 46.9208 11.619C46.6142 11.6153 46.4609 11.686 46.3075 11.7567C46.1542 11.8274 46.0009 11.8981 45.6943 11.8943C45.3901 11.8906 45.2368 11.8302 45.0846 11.7702C44.9301 11.7092 44.7768 11.6488 44.4678 11.6488C44.0877 11.6441 43.9403 11.6538 43.7372 11.6672C43.6126 11.6754 43.467 11.6849 43.2338 11.6934C42.9041 11.7054 42.7539 11.7389 42.5901 11.7754C42.4492 11.8068 42.2984 11.8405 42.0148 11.8646C41.7082 11.8906 41.553 11.8832 41.3978 11.8757C41.3267 11.8723 41.2556 11.8689 41.1699 11.8687C41.0755 11.9046 40.9605 11.9349 40.8032 11.954C40.5833 11.9807 40.4413 11.9902 40.3213 11.9941C40.2728 12.0146 40.2286 12.0364 40.1847 12.058C40.0318 12.1331 39.8825 12.2066 39.5693 12.2218C39.3711 12.2312 39.2537 12.1879 39.1491 12.1346L39.1092 12.1524C38.9939 12.2041 38.88 12.2552 38.6418 12.274C38.4062 12.2926 38.2847 12.235 38.1632 12.1773C38.0417 12.1196 37.9201 12.0619 37.6846 12.0805C37.449 12.0991 37.3293 12.0917 37.2097 12.0843C37.09 12.0768 36.9704 12.0694 36.7348 12.088C36.5007 12.1065 36.3884 12.1856 36.2769 12.2642C36.164 12.3438 36.0519 12.4228 35.8149 12.4377C35.7971 12.4377 35.7758 12.4174 35.7536 12.3961C35.7292 12.3729 35.7037 12.3484 35.6803 12.3484C35.3737 12.3336 35.2204 12.3243 35.0671 12.315L35.067 12.315L35.067 12.315L35.067 12.315C34.9137 12.3057 34.7604 12.2964 34.4538 12.2815C34.1472 12.2666 33.9938 12.2424 33.8405 12.2182C33.6872 12.194 33.5339 12.1698 33.2273 12.155C32.9025 12.1392 32.7497 12.1756 32.5867 12.2145C32.442 12.249 32.2892 12.2854 32.0008 12.2889C31.7105 12.2924 31.5577 12.2476 31.4121 12.2049C31.3573 12.1889 31.3035 12.1731 31.2439 12.1603C31.1312 12.1537 30.996 12.15 30.7968 12.1548C30.4827 12.1622 30.3275 12.2013 30.1724 12.2404C30.0217 12.2783 29.871 12.3163 29.5748 12.3252L29.5627 12.3261C29.4561 12.3339 29.3678 12.3351 29.2914 12.3321C28.9167 12.3413 28.8319 12.3453 28.3419 12.3686L28.3419 12.3686L28.299 12.3706C28.089 12.3819 27.9577 12.3632 27.8453 12.3385C27.804 12.353 27.7656 12.368 27.7272 12.3831C27.5762 12.4423 27.4267 12.5008 27.1172 12.5196C26.8106 12.5382 26.6554 12.5364 26.5002 12.5345C26.3451 12.5326 26.1899 12.5308 25.8833 12.5494C25.369 12.5806 25.286 12.5908 24.911 12.6372C24.8388 12.6462 24.7558 12.6564 24.6568 12.6684C24.3326 12.7038 24.1882 12.7663 24.0346 12.8326C23.8976 12.8918 23.7533 12.9542 23.4676 13.0033C23.1648 13.0554 23.0096 13.0647 22.8544 13.074C22.6992 13.0833 22.544 13.0926 22.2412 13.1447C21.9314 13.198 21.7761 13.2026 21.6174 13.2074C21.4656 13.2119 21.3107 13.2165 21.0147 13.2638C21.0013 13.2671 20.9864 13.2779 20.9713 13.2888L20.9713 13.2888C20.9528 13.3023 20.934 13.3159 20.9174 13.3159C20.6482 13.3345 20.5155 13.3605 20.3827 13.3866C20.25 13.4126 20.1172 13.4387 19.848 13.4573C19.5788 13.4759 19.4404 13.4201 19.302 13.3643C19.1637 13.3084 19.0253 13.2526 18.7561 13.2712C18.4869 13.2898 18.3579 13.3605 18.2289 13.4312C18.0999 13.5019 17.9708 13.5726 17.7016 13.5912C17.4317 13.6099 17.2933 13.5762 17.1555 13.5426C17.0184 13.5092 16.882 13.4759 16.6172 13.4945C16.4225 13.5081 16.2499 13.4597 16.1101 13.4194C16.0049 13.4324 15.9278 13.4336 15.8507 13.4348C15.8222 13.4352 15.7936 13.4357 15.7636 13.4367Z" fill="#023866"/>
</svg>
