<svg width="39" height="32" viewBox="0 0 39 32" fill="none" xmlns="http://www.w3.org/2000/svg">
<path fill-rule="evenodd" clip-rule="evenodd" d="M25.7233 3.88902C27.4966 3.46876 29.3066 3.5382 30.9327 4.41159C30.6019 4.23193 30.3311 3.84733 30.0756 3.48436C29.9361 3.28625 29.8011 3.09458 29.6634 2.94619C29.1521 2.39437 28.5892 1.89738 27.9711 1.46251C25.5394 -0.2514 20.8782 -0.898226 18.9211 1.98874C18.0308 3.30432 18.3067 5.35442 20.205 5.5006C21.372 5.59224 22.5434 5.10076 23.6946 4.61773C24.3797 4.33027 25.0577 4.04581 25.7233 3.88902ZM28.1036 6.62615C33.8353 6.62615 38.4818 11.2416 38.4818 16.9352C38.4818 18.9414 37.9042 20.8125 36.9035 22.3948C34.0708 27.9897 27.2427 31.9364 19.2705 31.9364C17.5562 31.9364 15.7461 31.6952 14.0686 31.3481C12.3947 31.0045 10.6472 30.387 9.12779 29.6122C7.88432 28.9764 6.67028 28.1687 5.61076 27.2625C1.575 23.8127 0.00042653 19.0145 0.927511 13.3539C1.05627 12.5718 1.34323 11.8044 1.6265 11.0626C1.67075 10.9477 1.71774 10.8332 1.76474 10.7187C2.01085 10.1191 2.2573 9.51867 2.11212 8.85898C1.99474 8.33697 1.66654 7.89758 1.34489 7.46697C1.22294 7.30371 1.10194 7.14172 0.993731 6.97697C0.280023 5.89162 -0.463116 3.55281 0.364638 2.36148C1.54925 0.647579 3.99204 1.80967 4.93384 3.14718C5.40474 3.81593 6.22881 5.42751 5.64755 6.63346C6.37965 5.89893 7.86593 5.52984 8.86291 5.52618C10.6067 5.51887 12.288 6.36303 13.285 7.78094C14.2967 9.22442 13.9288 10.635 12.1519 11.2124C11.2616 11.5011 10.2572 11.4572 9.34117 11.3549C8.97281 11.3137 8.56101 11.1733 8.1384 11.0292C7.10064 10.6754 5.99771 10.2994 5.31277 11.3147C4.71678 12.1954 4.40776 13.4781 4.49605 14.5306C4.72782 17.2787 8.07195 18.682 10.5221 18.2215C13.1709 17.7245 14.6977 15.8535 16.217 13.8107C18.5679 10.6496 21.5919 7.78825 25.3959 6.98428C26.2605 6.7504 27.1655 6.62615 28.1036 6.62615Z" fill="#1C96F8"/>
</svg>
