<svg width="140" height="20" viewBox="0 0 140 20" fill="none" xmlns="http://www.w3.org/2000/svg">
<path fill-rule="evenodd" clip-rule="evenodd" d="M30.6427 0.488739H34.2112V19.1115H30.6427V0.488739ZM7.03141 16.7105C5.34648 16.7105 3.3194 15.7896 2.33714 14.8687L0.791992 17.3537C2.22309 18.6656 4.50033 19.4477 6.86218 19.4477C10.6294 19.4477 12.7374 17.5766 12.7374 15.1209C12.7374 11.7698 9.61769 11.1559 7.28526 10.71C5.76587 10.4031 4.69899 10.0961 4.69899 9.25926C4.69899 8.47722 5.54514 8.00215 6.83643 8.00215C8.49194 8.00215 10.0371 8.70014 10.8538 9.56623L12.2886 7.13606C10.9384 6.07629 9.11367 5.29425 6.807 5.29425C3.23479 5.29425 1.24082 7.27493 1.24082 9.53699C1.24082 12.7333 4.2204 13.3027 6.54785 13.7475L6.58259 13.7541C8.12773 14.0611 9.30866 14.3937 9.30866 15.3438C9.30866 16.1807 8.57655 16.7105 7.03141 16.7105ZM19.2307 19.4477C21.0002 19.4477 22.6042 18.8045 23.5313 17.7155V19.1151H27.0999V10.4031C27.0999 6.52212 24.2597 5.29425 21.1694 5.29425C19.032 5.29425 16.8982 5.96666 15.239 7.41745L16.5892 9.78914C17.7407 8.72572 19.0909 8.19583 20.5514 8.19583C22.3504 8.19583 23.5313 9.09116 23.5313 10.4579V12.3289C22.63 11.2399 21.0297 10.6808 19.2307 10.6808C17.0638 10.6808 14.5069 11.8283 14.5069 14.982C14.5069 17.9969 17.0675 19.4477 19.2307 19.4477ZM20.6654 13.0233C21.8169 13.0233 22.9427 13.4143 23.5313 14.1963V15.87C22.9427 16.6521 21.8169 17.0431 20.6654 17.0431C19.2601 17.0431 18.1086 16.3195 18.1086 15.0624C18.1086 13.7505 19.2601 13.0233 20.6654 13.0233ZM50.7111 12.7163C50.7111 8.30547 47.9556 5.2906 43.9088 5.2906C39.7774 5.2906 36.8821 8.44799 36.8857 12.3509C36.8857 16.6813 40.0055 19.444 44.1369 19.444C46.2449 19.444 48.3787 18.8009 49.7288 17.573L48.1542 15.2853C47.2823 16.1222 45.7924 16.6265 44.5268 16.6265C42.2202 16.6265 40.8443 15.2013 40.6198 13.4984H50.7111V12.7163ZM47.2529 11.0974H40.5647C40.7339 9.75991 41.6904 8.11178 43.9088 8.11178C46.2706 8.11178 47.1683 9.81473 47.2529 11.0974ZM53.6615 14.8687C54.6438 15.7896 56.6709 16.7105 58.3558 16.7105C59.901 16.7105 60.6331 16.1807 60.6331 15.3438C60.6331 14.3937 59.4522 14.0611 57.907 13.7541L57.8723 13.7475C55.5448 13.3027 52.5652 12.7333 52.5652 9.53699C52.5652 7.27493 54.5592 5.29425 58.1314 5.29425C60.4344 5.29425 62.2628 6.07629 63.613 7.13606L62.1782 9.56623C61.3615 8.70014 59.8164 8.00215 58.1572 8.00215C56.8659 8.00215 56.0197 8.47722 56.0197 9.25926C56.0197 10.0961 57.0866 10.4031 58.606 10.71C60.9384 11.1559 64.0581 11.7698 64.0581 15.1209C64.0581 17.5766 61.9501 19.4477 58.1829 19.4477C55.8211 19.4477 53.5438 18.6656 52.1127 17.3537L53.6615 14.8687ZM72.8912 19.1151L75.757 9.92801L78.6229 19.1151H82.4159L86.5473 5.63046H82.8426L80.3115 14.7043L77.3316 5.63046H74.1567L71.1768 14.7043L68.6457 5.63046H64.9374L69.0688 19.1151H72.8912ZM97.5104 10.9037C97.5104 9.03269 96.5281 8.44799 94.9793 8.44799C93.6034 8.44799 92.5071 9.23003 91.889 10.0376V19.1115H88.3205V0.488739H91.889V7.38456C92.7609 6.35037 94.4459 5.2906 96.6679 5.2906C99.6478 5.2906 101.083 6.90949 101.083 9.53334V19.1115H97.5141V10.9037H97.5104ZM108.474 19.4477C110.243 19.4477 111.847 18.8045 112.774 17.7155V19.1151H116.343V10.4031C116.343 6.52212 113.503 5.29425 110.412 5.29425C108.275 5.29425 106.141 5.96666 104.482 7.41745L105.832 9.78914C106.984 8.72572 108.334 8.19583 109.794 8.19583C111.593 8.19583 112.774 9.09116 112.774 10.4579V12.3289C111.873 11.2399 110.273 10.6808 108.474 10.6808C106.307 10.6808 103.75 11.8283 103.75 14.982C103.75 17.9969 106.31 19.4477 108.474 19.4477ZM109.908 13.0233C111.06 13.0233 112.186 13.4143 112.774 14.1963V15.87C112.186 16.6521 111.06 17.0431 109.908 17.0431C108.503 17.0431 107.352 16.3195 107.352 15.0624C107.352 13.7505 108.503 13.0233 109.908 13.0233ZM119.886 0.488739H123.454V19.1115H119.886V0.488739ZM139.954 12.7163C139.954 8.30547 137.198 5.2906 133.152 5.2906C129.02 5.2906 126.125 8.44799 126.129 12.3509C126.129 16.6813 129.248 19.444 133.38 19.444C135.488 19.444 137.622 18.8009 138.972 17.573L137.397 15.2853C136.525 16.1222 135.035 16.6265 133.77 16.6265C131.463 16.6265 130.087 15.2013 129.863 13.4984H139.954V12.7163ZM133.152 8.11178C135.514 8.11178 136.411 9.81473 136.496 11.0974H129.808C129.977 9.75991 130.933 8.11178 133.152 8.11178Z" fill="#17191B"/>
</svg>
